<svg width="56" height="57" viewBox="0 0 56 57" fill="none" xmlns="http://www.w3.org/2000/svg">
<path d="M48.3124 41.5551C50.1275 40.3185 51.3227 38.23 51.3227 35.8658C51.3227 32.0778 48.2546 28.9961 44.4833 28.9961C40.7119 28.9961 37.6439 32.0778 37.6439 35.8658C37.6439 38.2325 38.8415 40.3234 40.6602 41.5594C38.134 42.4577 35.9567 44.2252 34.566 46.5815C33.7282 45.9956 32.8094 45.518 31.8298 45.1706C33.6448 43.9341 34.84 41.8456 34.84 39.4813C34.84 35.6933 31.7719 32.6117 28.0006 32.6117C24.2293 32.6117 21.1612 35.6933 21.1612 39.4813C21.1612 41.845 22.3564 43.9341 24.1714 45.1706C23.1893 45.5192 22.2681 45.9981 21.4279 46.587C20.0384 44.23 17.8617 42.4626 15.3356 41.5643C17.153 40.3289 18.3501 38.2386 18.3501 35.8731C18.3501 32.0863 15.2832 29.0059 11.5131 29.0059C7.74297 29.0059 4.6761 32.0863 4.6761 35.8731C4.6761 38.2355 5.87009 40.3234 7.68452 41.5594C3.21239 43.1476 0 47.4364 0 52.4653C0 52.9729 0.409768 53.3845 0.915128 53.3845H16.7987C16.5923 54.2498 16.482 55.1531 16.482 56.0808C16.482 56.5884 16.8918 57 17.3972 57H38.6022C39.1076 57 39.5173 56.5884 39.5173 56.0808C39.5173 55.1525 39.4071 54.2498 39.2007 53.3845H55.0849C55.5902 53.3845 56 52.9729 56 52.4653C56 47.434 52.7864 43.1439 48.3124 41.5551ZM39.4741 35.8658C39.4741 33.0917 41.7208 30.8345 44.4833 30.8345C47.2457 30.8345 49.4924 33.0911 49.4924 35.8658C49.4924 38.6404 47.2487 40.8934 44.4894 40.8964C44.4875 40.8964 44.4851 40.8964 44.4833 40.8964C44.4814 40.8964 44.4796 40.8964 44.4784 40.8964C41.719 40.8934 39.4741 38.638 39.4741 35.8658ZM22.9915 39.4819C22.9915 36.7079 25.2382 34.4506 28.0006 34.4506C30.763 34.4506 33.0098 36.7073 33.0098 39.4819C33.0098 42.2565 30.7661 44.5095 28.0067 44.5126C28.0049 44.5126 28.0024 44.5126 28.0006 44.5126C27.9988 44.5126 27.997 44.5126 27.9951 44.5126C25.2357 44.5095 22.9921 42.2541 22.9921 39.4819H22.9915ZM6.50636 35.8731C6.50636 33.1003 8.75247 30.8449 11.5125 30.8449C14.2725 30.8449 16.5186 33.1009 16.5186 35.8731C16.5186 38.6453 14.2755 40.8989 11.5173 40.9013C11.5155 40.9013 11.5137 40.9013 11.5119 40.9013C11.51 40.9013 11.5082 40.9013 11.5058 40.9013C8.74821 40.8983 6.50514 38.6435 6.50514 35.8731H6.50636ZM1.87288 51.5461C2.33501 46.6145 6.47957 42.7427 11.5082 42.7403C11.51 42.7403 11.5113 42.7403 11.5131 42.7403C11.5149 42.7403 11.5167 42.7403 11.518 42.7403C15.0451 42.7421 18.3032 44.6967 19.9946 47.7722C18.8993 48.8375 18.0127 50.1181 17.4045 51.5461H1.87288ZM18.3555 55.1623C18.8183 50.2282 22.9647 46.354 27.9957 46.3515C27.9976 46.3515 27.9988 46.3515 28.0006 46.3515C28.0018 46.3515 28.0037 46.3515 28.0049 46.3515C33.0353 46.354 37.1817 50.2282 37.6445 55.1623H18.3555ZM38.5955 51.5461C37.986 50.1157 37.0977 48.8326 35.9993 47.7661C37.6926 44.6912 40.9512 42.7372 44.4784 42.7354C44.4802 42.7354 44.482 42.7354 44.4833 42.7354C44.4845 42.7354 44.4863 42.7354 44.4875 42.7354C49.518 42.7378 53.665 46.6121 54.1271 51.5461H38.5955ZM17.743 13.9561C17.7875 14.0276 17.7966 14.0796 17.7789 14.1622L17.206 16.8683C16.9807 17.9318 17.5878 18.9874 18.6173 19.3231L19.2427 19.5274L16.3883 26.6539C16.1904 27.1486 16.2519 27.6635 16.5539 28.0317C16.8516 28.395 17.3363 28.5527 17.849 28.4537L20.8994 27.8647L22.8398 30.3012C23.1169 30.6492 23.498 30.8424 23.8895 30.8424C23.9589 30.8424 24.0284 30.8363 24.0984 30.8241C24.566 30.7409 24.9459 30.3893 25.1146 29.8835L27.4575 22.8665L27.8953 22.6891C27.9732 22.6573 28.0256 22.6573 28.1035 22.6891L28.5413 22.8665L30.8842 29.8835C31.0529 30.3893 31.4328 30.7403 31.9004 30.8241C31.9698 30.8363 32.0398 30.8424 32.1092 30.8424C32.5007 30.8424 32.8819 30.6492 33.1589 30.3012L35.0994 27.8647L38.1498 28.4537C38.6625 28.5527 39.1471 28.395 39.4449 28.0317C39.7469 27.6635 39.8084 27.1486 39.6105 26.6539L36.7561 19.5274L37.3808 19.3231C38.4104 18.9874 39.0168 17.9318 38.7922 16.8683L38.2192 14.1622C38.2016 14.0796 38.2107 14.0276 38.2552 13.9561L39.7146 11.6101C40.2882 10.6879 40.0775 9.48802 39.2245 8.81837L37.0539 7.11518C36.9875 7.06319 36.9613 7.01733 36.9497 6.93354L36.5668 4.19437C36.4164 3.11742 35.4866 2.3334 34.4047 2.37193L31.652 2.46856C31.568 2.47161 31.5186 2.45327 31.4559 2.397L29.4089 0.545816C28.6046 -0.181939 27.3911 -0.181939 26.5868 0.545816L24.5404 2.397C24.4777 2.45327 24.4278 2.47222 24.3444 2.46856L21.5917 2.37193C20.5109 2.33462 19.5806 3.11742 19.4296 4.19376L19.0466 6.93293C19.035 7.01672 19.0089 7.06258 18.9425 7.11457L16.7719 8.81776C15.9188 9.48741 15.7082 10.6873 16.2817 11.6095L17.7412 13.9555L17.743 13.9561ZM23.677 28.4072L21.6392 25.849L18.4359 26.4673L20.9877 20.0961L21.2373 20.1775C21.3171 20.2038 21.3573 20.2374 21.3968 20.312L22.6901 22.7546C23.067 23.4664 23.7909 23.8798 24.5495 23.8798C24.7754 23.8798 25.0038 23.8407 25.2272 23.7649L23.677 28.4072ZM37.5635 26.4673L34.3602 25.849L32.3223 28.4072L30.7728 23.7655C31.7476 24.0975 32.821 23.6792 33.3099 22.7552L34.6032 20.3126C34.6427 20.238 34.6829 20.2044 34.7627 20.1781L35.0117 20.0967L37.5635 26.4673ZM17.9007 10.2671L20.0713 8.56396C20.5103 8.21904 20.7837 7.74386 20.8616 7.18979L21.2446 4.45001C21.2641 4.30935 21.3792 4.20966 21.5192 4.20966C21.5229 4.20966 21.5259 4.20966 21.5296 4.20966L24.2823 4.30629C24.8388 4.32525 25.3526 4.13811 25.7673 3.76322L27.8143 1.91204C27.9221 1.8148 28.0785 1.81419 28.1863 1.91204L30.2333 3.76322C30.6474 4.13811 31.16 4.32525 31.7177 4.30568L34.4704 4.20905C34.6135 4.20538 34.7353 4.30507 34.756 4.44939L35.1396 7.18918C35.2169 7.74386 35.4903 8.21904 35.9293 8.56335L38.0999 10.2665C38.2144 10.3564 38.2418 10.5112 38.1644 10.6347L36.705 12.9806C36.4097 13.4558 36.3147 13.9958 36.4304 14.5438L37.0027 17.2499C37.0332 17.3924 36.9546 17.5288 36.8164 17.574L34.1971 18.429C33.6667 18.6021 33.2478 18.9549 32.9866 19.4491L31.6934 21.8917C31.6252 22.0201 31.4779 22.0745 31.3433 22.0195L28.7897 20.9829C28.2728 20.7731 27.7266 20.7731 27.2097 20.9829L24.6561 22.0195C24.5215 22.0739 24.3742 22.0201 24.306 21.8917L23.0128 19.4491C22.7509 18.9543 22.3327 18.6021 21.8023 18.429L19.183 17.574C19.0448 17.5288 18.9668 17.393 18.9967 17.2499L19.5696 14.5438C19.6853 13.9964 19.5903 13.4558 19.295 12.9812L17.8356 10.6353C17.7588 10.5118 17.7862 10.357 17.9007 10.2671ZM28 19.2087C31.9905 19.2087 35.237 15.9479 35.237 11.9398C35.237 7.93161 31.9905 4.67078 28 4.67078C24.0095 4.67078 20.763 7.93161 20.763 11.9398C20.763 15.9479 24.0095 19.2087 28 19.2087ZM28 6.50973C30.981 6.50973 33.4061 8.94557 33.4061 11.9398C33.4061 14.934 30.981 17.3698 28 17.3698C25.019 17.3698 22.5939 14.934 22.5939 11.9398C22.5939 8.94557 25.019 6.50973 28 6.50973ZM25.4689 13.0687L25.022 14.441C24.8625 14.9315 25.0342 15.4648 25.4501 15.7681C25.8659 16.0715 26.4236 16.0708 26.8389 15.7669L28 14.9162L29.1611 15.7669C29.3693 15.9192 29.6129 15.9956 29.8564 15.9956C30.1 15.9956 30.3423 15.9198 30.5493 15.7687C30.9652 15.4654 31.1369 14.9321 30.9774 14.4416L30.5305 13.0693L31.6952 12.2229C32.1117 11.9202 32.2846 11.3875 32.1257 10.8964C31.9674 10.4066 31.5162 10.0776 31.0035 10.0776H31.0011L29.5636 10.0806L29.1221 8.70645C28.9644 8.21537 28.5133 7.88574 27.9994 7.88574C27.4855 7.88574 27.0343 8.21598 26.8766 8.70645L26.4352 10.0806L24.9977 10.0776H24.9952C24.4826 10.0776 24.0314 10.4066 23.8731 10.8958C23.7142 11.3869 23.8871 11.9196 24.3036 12.2223L25.4689 13.0687ZM28 11.1863C28.1693 11.601 28.5553 11.8823 29.0004 11.9159C28.66 12.2058 28.5127 12.6614 28.618 13.0968C28.2381 12.8614 27.7613 12.8614 27.382 13.0968C27.4873 12.6614 27.34 12.2058 27.0002 11.9159C27.4447 11.8817 27.8307 11.6003 28 11.1863Z" fill="#F8F8F8"/>
</svg>
