<svg width="46" height="55" viewBox="0 0 46 55" fill="none" xmlns="http://www.w3.org/2000/svg">
<path d="M28.0075 5.74219H11.8821C11.2597 5.74219 10.7505 6.24884 10.7505 6.86808V18.7463C10.7505 19.3655 11.2597 19.8722 11.8821 19.8722H28.0075C28.6299 19.8722 29.1391 19.3655 29.1391 18.7463V6.86808C29.1391 6.24884 28.6299 5.74219 28.0075 5.74219ZM26.9325 17.6767H13.0137V7.99398H26.9325V17.6767Z" fill="#F8F8F8"/>
<path d="M23.7072 33.946C22.8585 30.906 19.9163 28.2039 19.7466 28.0913C19.6334 28.2039 16.5781 30.9623 15.786 33.946C15.6728 34.2837 15.6162 34.6778 15.6162 35.0156C15.6162 37.4362 17.4268 39.3503 19.69 39.3503C21.9532 39.3503 23.7638 37.3799 23.7638 35.0156C23.877 34.6215 23.8204 34.2837 23.7072 33.946ZM17.5399 35.4659C17.6531 36.4229 18.2189 37.2111 19.011 37.5488C17.936 37.3799 17.0873 36.4792 16.9176 35.297C16.9176 35.0719 16.9176 34.8467 16.9176 34.6215C17.1439 32.8201 18.7847 30.9623 18.8413 30.8498C18.8413 30.8498 19.011 30.9623 19.2939 31.1875C18.8413 31.7505 17.7097 33.2704 17.5399 34.7904C17.5399 35.0719 17.5399 35.2407 17.5399 35.4659Z" fill="#F8F8F8"/>
<path d="M38.4747 52.7482H34.0614V1.1259C34.0614 0.506653 33.5522 0 32.9298 0H6.56333C5.94095 0 5.43172 0.506653 5.43172 1.1259V52.7482H1.13161C0.509224 52.7482 0 53.2549 0 53.8741C0 54.4933 0.509224 55 1.13161 55H6.56333H32.9298H38.4747C39.0971 55 39.6063 54.4933 39.6063 53.8741C39.6063 53.2549 39.0971 52.7482 38.4747 52.7482ZM31.8548 52.7482H7.69494V2.1955H31.8548V52.7482Z" fill="#F8F8F8"/>
<path d="M45.9999 18.2393C45.9999 17.2823 45.6038 16.4942 45.038 15.8186C44.9814 15.7623 44.9814 15.706 44.9248 15.6497L37.7391 8.16254C37.3431 7.71218 36.6075 7.71218 36.1549 8.10625C35.7022 8.50031 35.7022 9.23214 36.0983 9.6825L41.1905 14.9742C39.8892 15.4809 38.9839 16.7756 38.9839 18.2393C38.9839 20.1533 40.5681 21.7296 42.4919 21.7296C42.9445 21.7296 43.3972 21.617 43.7932 21.5044V44.6979C43.7932 45.8238 42.8314 46.7808 41.6997 46.7808C40.5681 46.7808 39.6063 45.8238 39.6063 44.6979V23.9814C39.6063 23.3621 39.097 22.8555 38.4747 22.8555H35.3062V25.051H37.3996V44.6416C37.3996 47.0059 39.3234 48.92 41.6997 48.92C44.0761 48.92 45.9999 47.0059 45.9999 44.6416V18.6897C45.9999 18.6334 45.9999 18.6334 45.9999 18.5771C45.9999 18.4645 45.9999 18.3519 45.9999 18.2393ZM42.4919 19.5341C41.7563 19.5341 41.1905 18.9711 41.1905 18.2393C41.1905 17.5075 41.7563 16.9445 42.4919 16.9445C43.2274 16.9445 43.7932 17.5075 43.7932 18.2393C43.7932 18.9148 43.2274 19.5341 42.4919 19.5341Z" fill="#F8F8F8"/>
</svg>
