<svg width="91" height="56" viewBox="0 0 91 56" fill="none" xmlns="http://www.w3.org/2000/svg">
<path d="M86.5845 53.9992V25.9316H85.6057V23.8457H86.5451V21.8439H69.2055V16.1978H67.7859V14.1129H69.1691V12.111H46.7973V4.08772H45.7295V2.00182H46.8468V0H12.5267V2.00182H13.7521V4.08772H12.5347V12.123H1.99796V14.1249H4.30228V53.9982H0V56H91V53.9982L86.5845 53.9992ZM6.3245 19.4988L10.2324 25.246L6.3245 30.9942V19.4988ZM12.5347 36.9406L8.62579 31.1944L12.5347 25.4442V36.9406ZM6.3245 31.3946L10.2324 37.1388L6.3245 42.8891V31.3946ZM12.5347 37.339V48.8475L8.62579 43.0912L12.5347 37.339ZM12.5347 53.9992H9.30526L12.5347 49.2449V53.9992ZM44.775 6.09055V53.9992H14.557V6.09055H44.775ZM35.7448 4.08872V2.00283H38.7154V4.08872H35.7448ZM33.7226 4.08872H30.7519V2.00283H33.7226V4.08872ZM28.7287 4.08872H25.7581V2.00283H28.7287V4.08872ZM23.7368 4.08872H20.7662V2.00283H23.7368V4.08872ZM59.5211 16.1988V14.1139H61.6313V16.1988H59.5211ZM57.4989 16.1988H55.3887V14.1139H57.4989V16.1988ZM53.3664 16.1988H51.2552V14.1139H53.3664V16.1988ZM67.1833 18.2006V54.0002H46.7973V18.2006H67.1833ZM77.3409 25.9316V23.8457H79.4511V25.9316H77.3409ZM75.3187 25.9316H73.2085V23.8457H75.3187V25.9316ZM84.5623 27.9334V53.9992H69.2055V27.9334H84.5623ZM83.5835 25.9316H81.4733V23.8457H83.5835V25.9316ZM71.1863 23.8457V25.9316H69.2055V23.8457H71.1863ZM65.7637 16.1988H63.6535V14.1139H65.7637V16.1988ZM49.233 14.1139V16.1988H46.7973V14.1139H49.233ZM43.7073 4.08872H40.7367V2.00283H43.7073V4.08872ZM15.7743 2.00283H18.745V4.08872H15.7743V2.00283ZM12.5347 25.0468L8.62579 19.2976L12.1434 14.1259H12.5358V25.0468H12.5347ZM9.70566 14.1269L6.3245 19.0984V14.1269H9.70566ZM6.3245 43.2914L10.2324 49.0467L6.86747 54.0002H6.32349V43.2914H6.3245ZM41.9227 19.4517H39.9005V39.3238H41.9227V19.4517ZM41.9227 41.3747H39.9005V49.1528H41.9227V41.3747ZM65.1479 49.1528V24.7505H63.1257V49.1528H65.1479ZM83.0395 49.1938V34.012H81.0173V49.1938H83.0395Z" fill="#F8F8F8"/>
</svg>
