<svg width="64" height="66" viewBox="0 0 64 66" fill="none" xmlns="http://www.w3.org/2000/svg">
<path d="M32 65C49.1208 65 63 50.6731 63 33C63 15.3269 49.1208 1 32 1C14.8792 1 1 15.3269 1 33C1 50.6731 14.8792 65 32 65Z" fill="#F8F8F8" stroke="#8BDA27" stroke-width="2"/>
<path fill-rule="evenodd" clip-rule="evenodd" d="M32.5 61C47.1356 61 59 48.464 59 33C59 26.4469 56.8694 20.4195 53.3002 15.6492L42.0128 29.4103H50.1667L16.0613 54.9631C20.5788 58.7431 26.2899 61 32.5 61ZM15.2295 54.2376L33.1795 30.8462H25.0256L42.9922 7.28038C39.7746 5.81302 36.2271 5 32.5 5C17.8644 5 6 17.536 6 33C6 41.4929 9.57861 49.1026 15.2295 54.2376Z" fill="#0A8E26"/>
<mask id="mask0_766_580" style="mask-type:alpha" maskUnits="userSpaceOnUse" x="5" y="5" width="55" height="56">
<path fill-rule="evenodd" clip-rule="evenodd" d="M32.3657 60.7296C47.3159 60.7296 59.4354 48.3031 59.4354 32.9742C59.4354 26.4783 57.259 20.5036 53.6131 15.7749L42.083 29.4158H50.4122L15.5735 54.7454C20.1882 58.4924 26.022 60.7296 32.3657 60.7296ZM14.7238 54.0263L33.0598 30.8391H24.7306L43.0835 7.47921C39.7967 6.02467 36.1729 5.21875 32.3657 5.21875C17.4154 5.21875 5.2959 17.6452 5.2959 32.9742C5.2959 41.3929 8.95145 48.9361 14.7238 54.0263Z" fill="#0A8E26"/>
</mask>
<g mask="url(#mask0_766_580)">
<path d="M37.9182 24.4343L48.3297 8.06574L42.7769 4.50735L35.1418 2.37232L26.8127 1.66064L19.8717 5.21903L13.6248 9.4891L8.76615 13.7592L3.90748 22.2993L3.21338 34.3978L4.60157 40.8029L8.07205 50.0547L13.6248 55.7481L24.7304 45.073L31.6713 37.2445L37.9182 31.5511V24.4343Z" fill="#8BDA27"/>
</g>
</svg>
