<svg width="111" height="112" viewBox="0 0 111 112" fill="none" xmlns="http://www.w3.org/2000/svg">
<g opacity="0.1">
<path fill-rule="evenodd" clip-rule="evenodd" d="M55.4999 104.533C82.0649 104.533 103.6 82.8045 103.6 56.0001C103.6 44.6413 99.7327 34.194 93.2542 25.9254L72.7666 49.7779H87.5666L25.6621 94.0694C33.8618 100.621 44.228 104.533 55.4999 104.533ZM24.1523 92.812L56.7332 52.2668H41.9332L74.5443 11.4195C68.704 8.87603 62.265 7.4668 55.4999 7.4668C28.9349 7.4668 7.3999 29.1958 7.3999 56.0001C7.3999 70.7212 13.8954 83.9113 24.1523 92.812Z" fill="#0A8E26"/>
<mask id="mask0_515_7209" style="mask-type:alpha" maskUnits="userSpaceOnUse" x="7" y="7" width="97" height="98">
<path fill-rule="evenodd" clip-rule="evenodd" d="M55.4999 104.533C82.0649 104.533 103.6 82.8045 103.6 56.0001C103.6 44.6413 99.7327 34.194 93.2542 25.9254L72.7666 49.7779H87.5666L25.6621 94.0694C33.8618 100.621 44.228 104.533 55.4999 104.533ZM24.1523 92.812L56.7332 52.2668H41.9332L74.5443 11.4195C68.704 8.87603 62.265 7.4668 55.4999 7.4668C28.9349 7.4668 7.3999 29.1958 7.3999 56.0001C7.3999 70.7212 13.8954 83.9113 24.1523 92.812Z" fill="#0A8E26"/>
</mask>
<g mask="url(#mask0_515_7209)">
<path d="M65.3664 41.0668L83.8664 12.4446L73.9997 6.22241L60.433 2.48907L45.633 1.24463L33.2997 7.46685L22.1997 14.9335L13.5664 22.4002L4.93304 37.3335L3.69971 58.4891L6.16637 69.6891L12.333 85.8668L22.1997 95.8224L41.933 77.1557L54.2664 63.4668L65.3664 53.5113V41.0668Z" fill="#8BDA27"/>
</g>
</g>
</svg>
