<svg width="416" height="145" viewBox="0 0 416 145" fill="none" xmlns="http://www.w3.org/2000/svg">
<path d="M70.8407 141.915C108.3 141.915 138.667 110.837 138.667 72.5001C138.667 34.1633 108.3 3.08521 70.8407 3.08521C33.3814 3.08521 3.01465 34.1633 3.01465 72.5001C3.01465 110.837 33.3814 141.915 70.8407 141.915Z" fill="#F8F8F8" stroke="#8BDA27" stroke-width="2"/>
<path fill-rule="evenodd" clip-rule="evenodd" d="M70.8407 132.659C103.306 132.659 129.623 105.725 129.623 72.4999C129.623 58.4201 124.897 45.4701 116.98 35.2207L91.9422 64.7871H110.029L34.3762 119.689C44.397 127.81 57.0654 132.659 70.8407 132.659ZM32.531 118.13L72.348 67.8722H54.261L94.1147 17.2399C86.9773 14.0872 79.1083 12.3403 70.8407 12.3403C38.3758 12.3403 12.0581 39.2745 12.0581 72.4999C12.0581 90.7474 19.9962 107.097 32.531 118.13Z" fill="#0A8E26"/>
<mask id="mask0_335_9752" style="mask-type:alpha" maskUnits="userSpaceOnUse" x="12" y="12" width="118" height="121">
<path fill-rule="evenodd" clip-rule="evenodd" d="M70.8407 132.659C103.306 132.659 129.623 105.725 129.623 72.4999C129.623 58.4201 124.897 45.4701 116.98 35.2207L91.9422 64.7871H110.029L34.3762 119.689C44.397 127.81 57.0654 132.659 70.8407 132.659ZM32.531 118.13L72.348 67.8722H54.261L94.1147 17.2399C86.9773 14.0872 79.1083 12.3403 70.8407 12.3403C38.3758 12.3403 12.0581 39.2745 12.0581 72.4999C12.0581 90.7474 19.9962 107.097 32.531 118.13Z" fill="#0A8E26"/>
</mask>
<g mask="url(#mask0_335_9752)">
<path d="M82.8985 53.9894L105.507 18.5107L93.4492 10.7979L76.8695 6.17024L58.7825 4.62769L43.71 12.3405L30.1448 21.5958L19.5941 30.8511L9.04338 49.3617L7.53613 75.5851L10.5506 89.4681L18.0869 109.521L30.1448 121.862L54.2608 98.7234L69.3332 81.7553L82.8985 69.4149V53.9894Z" fill="#8BDA27"/>
</g>
<path d="M158.144 14.1067H172.868L187.343 53.3866H187.509L202.233 14.1067H216.046L191.893 74.0426H181.553L158.144 14.1067Z" fill="black"/>
<path d="M230.969 68.8787H230.804C229.425 71.0796 227.578 72.6598 225.262 73.6193C223.001 74.5788 220.602 75.0585 218.065 75.0585C216.19 75.0585 214.371 74.7762 212.606 74.2119C210.897 73.7038 209.38 72.9137 208.057 71.8417C206.733 70.7693 205.685 69.443 204.913 67.8628C204.141 66.2826 203.755 64.4482 203.755 62.3602C203.755 59.9899 204.169 57.9864 204.996 56.3495C205.878 54.7128 207.036 53.3585 208.47 52.2861C209.959 51.214 211.641 50.3955 213.516 49.8313C215.391 49.2102 217.321 48.7589 219.306 48.4766C221.346 48.1946 223.36 48.0252 225.345 47.9688C227.385 47.9123 229.26 47.8839 230.969 47.8839C230.969 45.6266 230.17 43.8489 228.571 42.5507C227.027 41.1964 225.179 40.5192 223.029 40.5192C220.988 40.5192 219.113 40.9705 217.404 41.8735C215.749 42.7201 214.261 43.9054 212.937 45.4291L206.319 38.4873C208.636 36.2864 211.338 34.6498 214.426 33.5774C217.514 32.4485 220.712 31.8843 224.021 31.8843C227.661 31.8843 230.639 32.364 232.955 33.3235C235.326 34.2265 237.201 35.5809 238.579 37.3869C240.013 39.1929 241.006 41.4222 241.557 44.0745C242.109 46.6706 242.384 49.69 242.384 53.1326V74.0426H230.969V68.8787ZM227.909 56.011C226.971 56.011 225.786 56.0675 224.352 56.1804C222.973 56.2369 221.622 56.4624 220.299 56.8576C219.03 57.2525 217.928 57.8451 216.99 58.6352C216.108 59.4253 215.667 60.5258 215.667 61.9369C215.667 63.4607 216.301 64.5895 217.569 65.3231C218.837 66.0568 220.161 66.4236 221.54 66.4236C222.753 66.4236 223.911 66.2542 225.014 65.9158C226.172 65.577 227.192 65.0973 228.074 64.4766C228.957 63.8559 229.646 63.0655 230.142 62.1063C230.694 61.1468 230.969 60.018 230.969 58.7201V56.011H227.909Z" fill="black"/>
<path d="M262.577 45.0059C260.757 42.692 258.358 41.5348 255.38 41.5348C254.333 41.5348 253.312 41.789 252.32 42.2968C251.327 42.8046 250.831 43.6796 250.831 44.921C250.831 45.9369 251.327 46.699 252.32 47.2068C253.367 47.6584 254.663 48.0817 256.207 48.4766C257.807 48.8153 259.489 49.2102 261.253 49.6619C263.073 50.0568 264.755 50.7059 266.299 51.6089C267.898 52.5119 269.194 53.7537 270.187 55.3339C271.235 56.8576 271.758 58.9175 271.758 61.5136C271.758 64.1662 271.179 66.3671 270.021 68.1167C268.918 69.8098 267.485 71.1925 265.72 72.2649C263.955 73.2805 261.97 73.9861 259.764 74.3813C257.558 74.8327 255.38 75.0585 253.23 75.0585C250.417 75.0585 247.577 74.6633 244.71 73.8732C241.842 73.0266 239.416 71.5594 237.431 69.4711L244.958 60.921C246.116 62.3883 247.384 63.5171 248.763 64.3072C250.197 65.0408 251.851 65.4077 253.726 65.4077C255.16 65.4077 256.455 65.2102 257.614 64.815C258.772 64.3637 259.351 63.5736 259.351 62.4447C259.351 61.3723 258.827 60.5822 257.779 60.0744C256.786 59.5102 255.49 59.0585 253.891 58.7201C252.347 58.3249 250.665 57.93 248.846 57.5348C247.081 57.0834 245.399 56.4343 243.8 55.5878C242.256 54.7412 240.96 53.5559 239.912 52.0322C238.92 50.452 238.423 48.3637 238.423 45.7676C238.423 43.3408 238.892 41.2528 239.829 39.5033C240.822 37.7537 242.09 36.3145 243.634 35.1856C245.234 34.0571 247.053 33.2386 249.094 32.7308C251.134 32.1666 253.202 31.8843 255.298 31.8843C257.945 31.8843 260.619 32.2792 263.321 33.0693C266.023 33.8597 268.312 35.2705 270.187 37.302L262.577 45.0059Z" fill="black"/>
<path d="M268.937 32.9002H280.352V38.318H280.517C281.014 37.5843 281.648 36.8507 282.42 36.117C283.247 35.3269 284.185 34.6214 285.232 34.0007C286.335 33.3799 287.521 32.8718 288.789 32.4769C290.057 32.0817 291.409 31.8843 292.842 31.8843C295.82 31.8843 298.522 32.4205 300.949 33.4925C303.375 34.5085 305.443 35.9761 307.153 37.8947C308.916 39.7572 310.27 41.9865 311.207 44.5826C312.145 47.1787 312.612 50.0287 312.612 53.1326C312.612 56.011 312.172 58.7765 311.289 61.4288C310.463 64.0249 309.248 66.3391 307.65 68.3706C306.104 70.4024 304.201 72.0391 301.941 73.2805C299.68 74.4658 297.116 75.0585 294.248 75.0585C291.657 75.0585 289.23 74.6633 286.969 73.8732C284.764 73.0266 282.944 71.6158 281.51 69.6404H281.345V93.3439H268.937V32.9002ZM280.352 53.4714C280.352 56.5753 281.207 59.0869 282.916 61.0055C284.681 62.9245 287.135 63.8839 290.278 63.8839C293.421 63.8839 295.848 62.9245 297.557 61.0055C299.322 59.0869 300.204 56.5753 300.204 53.4714C300.204 50.3675 299.322 47.8559 297.557 45.9369C295.848 44.0183 293.421 43.0588 290.278 43.0588C287.135 43.0588 284.681 44.0183 282.916 45.9369C281.207 47.8559 280.352 50.3675 280.352 53.4714Z" fill="black"/>
<path d="M334.771 68.8787H334.606C333.225 71.0796 331.38 72.6598 329.062 73.6193C326.801 74.5788 324.405 75.0585 321.866 75.0585C319.991 75.0585 318.171 74.7762 316.407 74.2119C314.698 73.7038 313.182 72.9137 311.858 71.8417C310.535 70.7693 309.486 69.443 308.714 67.8628C307.943 66.2826 307.557 64.4482 307.557 62.3602C307.557 59.9899 307.97 57.9864 308.799 56.3495C309.679 54.7128 310.836 53.3585 312.271 52.2861C313.76 51.214 315.443 50.3955 317.318 49.8313C319.193 49.2102 321.122 48.7589 323.108 48.4766C325.149 48.1946 327.16 48.0252 329.146 47.9688C331.187 47.9123 333.062 47.8839 334.771 47.8839C334.771 45.6266 333.97 43.8489 332.372 42.5507C330.829 41.1964 328.981 40.5192 326.828 40.5192C324.79 40.5192 322.915 40.9705 321.206 41.8735C319.551 42.7201 318.062 43.9054 316.739 45.4291L310.122 38.4873C312.437 36.2864 315.138 34.6498 318.228 33.5774C321.315 32.4485 324.513 31.8843 327.823 31.8843C331.462 31.8843 334.44 32.364 336.755 33.3235C339.127 34.2265 341.002 35.5809 342.38 37.3869C343.815 39.1929 344.807 41.4222 345.358 44.0745C345.91 46.6706 346.184 49.69 346.184 53.1326V74.0426H334.771V68.8787ZM331.709 56.011C330.771 56.011 329.587 56.0675 328.152 56.1804C326.774 56.2369 325.424 56.4624 324.1 56.8576C322.831 57.2525 321.728 57.8451 320.79 58.6352C319.91 59.4253 319.467 60.5258 319.467 61.9369C319.467 63.4607 320.103 64.5895 321.369 65.3231C322.638 66.0568 323.962 66.4236 325.342 66.4236C326.554 66.4236 327.712 66.2542 328.815 65.9158C329.972 65.577 330.994 65.0973 331.875 64.4766C332.758 63.8559 333.448 63.0655 333.942 62.1063C334.494 61.1468 334.771 60.018 334.771 58.7201V56.011H331.709Z" fill="black"/>
<path d="M370.846 46.1908C370.237 45.2881 369.384 44.5542 368.281 43.9899C367.177 43.3692 365.993 43.0588 364.724 43.0588C361.579 43.0588 359.126 44.0183 357.362 45.9369C355.653 47.8559 354.797 50.3675 354.797 53.4714C354.797 56.5753 355.653 59.0869 357.362 61.0055C359.126 62.9245 361.579 63.8839 364.724 63.8839C366.101 63.8839 367.289 63.5736 368.281 62.9528C369.272 62.3318 370.129 61.5982 370.846 60.7516L379.033 69.5559C377.104 71.5874 374.816 73.0266 372.169 73.8732C369.577 74.6633 367.096 75.0585 364.724 75.0585C361.637 75.0585 358.713 74.5504 355.954 73.5348C353.253 72.5188 350.881 71.0796 348.84 69.2172C346.857 67.2982 345.286 65.0128 344.125 62.3602C342.968 59.7076 342.389 56.7447 342.389 53.4714C342.389 50.1981 342.968 47.2352 344.125 44.5826C345.286 41.93 346.857 39.6726 348.84 37.8102C350.881 35.8912 353.253 34.4239 355.954 33.408C358.713 32.3921 361.637 31.8843 364.724 31.8843C367.096 31.8843 369.577 32.3076 372.169 33.1541C374.816 33.9442 377.104 35.355 379.033 37.3869L370.846 46.1908Z" fill="black"/>
<path d="M373.194 10.0432H385.602V49.1538L399.333 32.9002H414.553L398.588 51.4396L414.969 74.0426H399.333L385.768 53.2175H385.602V74.0426H373.194V10.0432Z" fill="black"/>
<path d="M161.503 101.838H173.159V104.187H163.952V109.695H172.522V112.045H163.952V117.97H173.618V120.319H161.503V101.838Z" fill="black"/>
<path d="M180.793 101.838H184.007L193.954 117.03H194.005V101.838H196.454V120.319H193.342L183.293 105.127H183.242V120.319H180.793V101.838Z" fill="black"/>
<path d="M204.792 101.838H216.448V104.187H207.24V109.695H215.81V112.045H207.24V117.97H216.907V120.319H204.792V101.838Z" fill="black"/>
<path d="M224.083 101.838H230.433C231.59 101.838 232.542 102.003 233.29 102.334C234.038 102.647 234.625 103.056 235.05 103.561C235.492 104.048 235.798 104.605 235.968 105.231C236.138 105.841 236.223 106.432 236.223 107.007C236.223 107.598 236.121 108.172 235.917 108.729C235.713 109.269 235.416 109.765 235.024 110.217C234.65 110.652 234.183 111.027 233.622 111.34C233.077 111.636 232.465 111.818 231.785 111.888L236.912 120.319H233.851L229.26 112.175H226.531V120.319H224.083V101.838ZM226.531 109.982H229.745C230.221 109.982 230.688 109.948 231.148 109.878C231.624 109.791 232.04 109.643 232.397 109.434C232.771 109.225 233.069 108.93 233.29 108.547C233.511 108.147 233.622 107.633 233.622 107.007C233.622 106.38 233.511 105.876 233.29 105.493C233.069 105.092 232.771 104.788 232.397 104.579C232.04 104.37 231.624 104.231 231.148 104.161C230.688 104.074 230.221 104.031 229.745 104.031H226.531V109.982Z" fill="black"/>
<path d="M258.753 109.982V119.092C258.311 119.371 257.809 119.614 257.248 119.823C256.687 120.032 256.1 120.206 255.488 120.345C254.893 120.502 254.281 120.615 253.652 120.685C253.04 120.754 252.462 120.789 251.918 120.789C250.387 120.789 249.019 120.528 247.811 120.006C246.621 119.484 245.609 118.779 244.776 117.891C243.96 117.004 243.331 115.977 242.889 114.811C242.464 113.628 242.251 112.384 242.251 111.079C242.251 109.704 242.48 108.425 242.939 107.241C243.416 106.058 244.062 105.031 244.878 104.161C245.711 103.291 246.706 102.612 247.862 102.125C249.019 101.621 250.285 101.368 251.663 101.368C253.329 101.368 254.689 101.586 255.743 102.021C256.798 102.438 257.682 103.021 258.396 103.77L256.661 105.675C255.913 104.944 255.123 104.44 254.29 104.161C253.456 103.866 252.581 103.717 251.663 103.717C250.625 103.717 249.69 103.918 248.857 104.318C248.024 104.701 247.31 105.223 246.714 105.884C246.119 106.545 245.66 107.328 245.337 108.233C245.014 109.121 244.852 110.069 244.852 111.079C244.852 112.123 245.031 113.097 245.388 114.002C245.745 114.89 246.238 115.664 246.867 116.325C247.497 116.987 248.236 117.509 249.086 117.891C249.936 118.257 250.863 118.44 251.867 118.44C252.734 118.44 253.55 118.361 254.315 118.205C255.097 118.031 255.76 117.787 256.305 117.474V112.331H252.3V109.982H258.753Z" fill="black"/>
<path d="M271.182 112.436L264.347 101.838H267.484L272.407 109.956L277.482 101.838H280.466L273.631 112.436V120.319H271.182V112.436Z" fill="black"/>
<path d="M297.036 101.838H299.484V117.97H307.774V120.319H297.036V101.838Z" fill="black"/>
<path d="M313.959 101.838H316.407V120.319H313.959V101.838Z" fill="black"/>
<path d="M324.58 101.838H328.227L333.964 115.829H334.066L339.755 101.838H343.402V120.319H340.954V105.127H340.903L334.805 120.319H333.174L327.079 105.127H327.027V120.319H324.58V101.838Z" fill="black"/>
<path d="M351.568 101.838H354.019V120.319H351.568V101.838Z" fill="black"/>
<path d="M366.14 104.187H360.325V101.838H374.406V104.187H368.591V120.319H366.14V104.187Z" fill="black"/>
<path d="M380.709 101.838H392.367V104.187H383.16V109.695H391.73V112.045H383.16V117.97H392.825V120.319H380.709V101.838Z" fill="black"/>
<path d="M399.592 101.838H405.893C407.168 101.838 408.283 101.986 409.236 102.282C410.203 102.578 411.038 102.978 411.735 103.483C412.449 103.97 413.034 104.535 413.495 105.179C413.971 105.823 414.345 106.485 414.616 107.163C414.888 107.842 415.084 108.52 415.204 109.199C415.322 109.878 415.382 110.504 415.382 111.079C415.382 112.262 415.168 113.411 414.743 114.524C414.318 115.621 413.691 116.604 412.856 117.474C412.024 118.326 410.987 119.014 409.745 119.536C408.521 120.058 407.101 120.319 405.486 120.319H399.592V101.838ZM402.043 117.97H405.127C406.167 117.97 407.144 117.831 408.06 117.552C408.997 117.256 409.811 116.821 410.511 116.247C411.207 115.673 411.759 114.959 412.169 114.107C412.576 113.237 412.781 112.227 412.781 111.079C412.781 110.487 412.687 109.8 412.5 109.017C412.313 108.216 411.955 107.459 411.427 106.746C410.918 106.032 410.203 105.432 409.287 104.945C408.367 104.44 407.177 104.187 405.715 104.187H402.043V117.97Z" fill="black"/>
</svg>
