<svg xmlns="http://www.w3.org/2000/svg" width="347.6" height="205.3" xmlns:v="https://vecta.io/nano"><path d="M14.7 90.8c-3.3 10.2-2.7 17-4.6 26.7 0 0 34-1 44.7 2.3s11.9 14.7 1.3 17-20.6 0-20.6 0l.7 22.8s26.1 3.3 41.1-6.9c15-10.1 16.3-39.5-.7-49.3s-47.3-9.1-51.5-9.5c-4.2-.1-10.7-2.4-10.4-3.1m28.4-63.3c10.6 0 19.2 8.6 19.2 19.2s-8.6 19.2-19.2 19.2-19.2-8.6-19.2-19.2c-.1-10.5 8.5-19.2 19.2-19.2m0-23.8a43.15 43.15 0 0 1 19 4.4c5.6-7.8 14.5-9.6 25.7-7-.8 8.9.5 16.2 3.2 22.5-4.2-1.8-8.1-1.9-11.7-.1 4.3 6.7 6.8 14.7 6.8 23.2 0 23.8-19.3 43.1-43.1 43.1-23.7 0-43-19.2-43-43S19.3 3.7 43.1 3.7" fill-rule="evenodd" fill="#ed1c24"/><g fill="#005aaa"><path d="M313.5 144.7c0 2.5-2.9 3.3-4.9 3.3-3.5 0-7.7-.9-7.8-4.9-1.6 1.7-2.2 3.1-2.2 4.4 0 3.3 4.1 5 10 5 7.3 0 10.8-2.9 10.8-7.6 0-11.2-15.2-5.7-15.2-10.3 0-2 1.6-2.9 4.9-2.9 4 0 7.3 1.4 7.3 4.3 1.3-1.6 1.8-3 1.8-4.2 0-3.2-3.9-4.8-9.6-4.8-6.7 0-10.4 2.6-10.4 7.8.1 10.4 15.3 4.6 15.3 9.9m-27.9 7.8c5.4 0 9.3-2.3 9.3-5.7 0-1.2-.5-2.5-1.5-3.9 0 2.8-3.2 4.8-7.9 4.8-3.5 0-5.2-1.5-5.2-4.3v-1.7c1.4.6 2.9.8 4.4.8 7.4 0 9.8-3.7 9.8-7.7 0-4.7-3.2-7.8-9.9-7.8s-10.4 3.1-10.4 8.3v8.8c.1 5.3 4.3 8.4 11.4 8.4m-5.2-16.4c0-2.9.9-4.5 4.1-4.5 2.9 0 4 1.4 4 3.3s-1.2 3-4.6 3c-1.4 0-3.1-.3-3.5-.4v-1.4zm-17.3-13.5c0 .7.8 1.4 1.7 1.4h4.1v-4c0-.7-1-1.4-1.7-1.4h-4.1v4zm-.1 26.6c0 3.1 6.1 3.1 6.1 3.1v-21.9c0-3-5.7-3.1-6.1-3.1v21.9zm-13.6 3.1v-19.9c.5-.1 1.9-.5 3.5-.5 2.7 0 5.1 1.3 5.1 4.3.4-.6 2.2-2.3 2.2-4.6 0-3.2-3-4.4-6.4-4.4-2.8 0-4.9 1-6.9 1-1 0-2.2-.2-3.6-.9v22c0 3 6.1 3 6.1 3m-27-8.1c0 5.2 3.5 8.3 9.7 8.3 5.7 0 8.4-2.5 8.4-5.4 0-1.5-.7-2.8-2-4.2 0 3.8-2.8 4.9-5.6 4.9-3.6 0-4.5-1.8-4.5-5v-9.5h6.1c3.4 0 3.5-4.6 3.5-4.6h-9.6V127c0-4-4.9-4-6.1-4v21.2zm-10.3.5c0 2.5-2.9 3.3-4.9 3.3-3.5 0-7.7-.9-7.8-4.9-1.6 1.7-2.2 3.1-2.2 4.4 0 3.3 4.1 5 10 5 7.3 0 10.8-2.9 10.8-7.6 0-11.2-15.2-5.7-15.2-10.3 0-2 1.6-2.9 4.9-2.9 4 0 7.3 1.4 7.3 4.3 1.3-1.6 1.8-3 1.8-4.2 0-3.2-3.9-4.8-9.6-4.8-6.7 0-10.4 2.6-10.4 7.8 0 10.4 15.3 4.6 15.3 9.9m-34.6-14.3c0-3-6.1-3.1-6.1-3.1v17.4c0 6.1 5.1 7.8 10 7.8 2.5 0 4.7-1 7-1 2.4 0 4.2 1 4.2 1v-22.1c0-3.1-6.1-3.1-6.1-3.1v19.9s-2.1.7-4.5.7c-3.3 0-4.5-1.4-4.5-3.9v-13.6zm-18 17.1s-1.8.6-4 .6c-3.9 0-5-1.5-5-4.4V136c0-3.1 1.6-4.4 3.9-4.4 2.5 0 5.1 1.6 5.1 3.9v12zm0-21.3c0 1.2.4 2.7.4 2.7s-2.2-1.8-6.1-1.8c-5 0-9.4 3.1-9.4 8.2v9c0 5.2 3.9 8.2 10.6 8.2 2 0 4.4-.8 6.9-.8 1.3 0 2.5.2 3.8.8v-32.9c0-3.6-5.7-3.5-6.1-3.5v10.1zm-26.4 23c0 3 6.1 3.1 6.1 3.1v-17.4c0-6.1-5.1-7.8-10-7.8-2.5 0-4.7 1-7 1-2.4 0-4.2-1-4.2-1v22.1c0 3.1 6.1 3.1 6.1 3.1v-19.9s2.1-.7 4.5-.7c3.3 0 4.5 1.4 4.5 3.9v13.6zm-26.7-26.6c0 .7.8 1.4 1.7 1.4h4.1v-4c0-.7-1-1.4-1.7-1.4h-4.1v4zm-.2 26.6c0 3.1 6.1 3.1 6.1 3.1v-21.9c0-3-5.7-3.1-6.1-3.1v21.9zm138.1-52.6c0 3 6.1 3.1 6.1 3.1V82.3c0-6.1-5.1-7.8-10-7.8-2.5 0-4.7 1-7 1-2.4 0-4.2-1-4.2-1v22.1c0 3.1 6.1 3.1 6.1 3.1v-20s2.1-.7 4.5-.7c3.3 0 4.5 1.4 4.5 3.9v13.7zm-41.2-4.1c0 5.6 4.8 7.4 9.6 7.4 2.7 0 5-.8 7.4-.8 1.2 0 2.4.1 3.6.8V82.6c0-5.1-3.7-8.1-10.6-8.1-3.9 0-9.4 1.2-9.4 5.3 0 1.3.4 2.7 1.8 4.6 0-4 3.6-5.3 7.5-5.3 3.6 0 4.6 1.5 4.6 3.2-1.8 3.7-14.5 1.4-14.5 10.2m14.7 2.3s-1.9.8-4.4.8c-2.7 0-4.2-1.1-4.2-3.2 0-4.2 7.5-2.8 8.6-5.3v7.7zm-19.5-4.4c0 2.8-3.1 4.8-7.2 4.8-3.8 0-5.5-1.5-5.5-4.9V84c0-4 2.3-4.9 5.7-4.9 3 0 6 1.7 6 5.5 1.3-1.8 1.8-3.4 1.8-4.7 0-4.1-5.3-5.4-9-5.4-6.7 0-10.6 3.2-10.6 8.3v8.8c0 5.2 4.2 8.3 10.9 8.3 5.4 0 9.3-2.2 9.3-5.6 0-1.1-.4-2.4-1.4-3.9m-29.9-20.5c0 .7.8 1.4 1.7 1.4h4.1v-3.9c0-.7-1-1.4-1.7-1.4h-4.1v3.9zm-.2 26.7c0 3.1 6.1 3.1 6.1 3.1V77.8c0-3-5.7-3.1-6.1-3.1v21.9zm-13.5 3.1V79.8c.5-.1 1.9-.5 3.5-.5 2.7 0 5.1 1.3 5.1 4.3.4-.6 2.2-2.3 2.2-4.6 0-3.2-3-4.4-6.4-4.4-2.8 0-4.9 1-6.9 1-1 0-2.2-.2-3.6-.9v22.1c-.1 2.9 6.1 2.9 6.1 2.9m-23.3-3.1c0 3.1 6.1 3.1 6.1 3.1V80.8h4.9c3.4 0 3.5-4.6 3.5-4.6h-8.4v-5c0-2.8 2.5-4.6 5.4-4.6 3.2 0 6.5 1.1 6.5 3.6 1.5-1.2 2.3-2.4 2.3-3.6 0-3-3.9-4.7-9-4.7-5.7 0-11.3 3.2-11.3 8.3v26.4zm-26-4.1c0 5.6 4.8 7.4 9.6 7.4 2.7 0 5-.8 7.4-.8 1.2 0 2.4.1 3.6.8V82.6c0-5.1-3.7-8.1-10.6-8.1-3.9 0-9.4 1.2-9.4 5.3 0 1.3.4 2.7 1.8 4.6 0-4 3.6-5.3 7.5-5.3 3.6 0 4.6 1.5 4.6 3.2-1.9 3.7-14.5 1.4-14.5 10.2m14.7 2.3s-1.9.8-4.4.8c-2.7 0-4.2-1.1-4.2-3.2 0-4.2 7.5-2.8 8.6-5.3v7.7zm223.5 105.3v-15h-4.3v-1.7h.3c1.5 0 2.5-.3 3.3-.9.7-.6 1.1-1.6 1.2-2.9h1.8v20.5h-2.3zm-19.4 0c.4-3.4 1.2-6.6 2.4-9.6s2.8-5.7 4.7-8.3h-9.1V180h11.1v2c-2 2.6-3.5 5.4-4.6 8.5s-1.8 6.3-2 9.7h-2.5zm-9.3-9.5c-.3.8-.8 1.4-1.5 1.9-.7.4-1.4.7-2.3.7-1.6 0-2.9-.6-3.8-1.7s-1.4-2.7-1.4-4.8c0-2.2.5-3.9 1.5-5.1 1-1.3 2.3-1.9 3.9-1.9 2 0 3.5.8 4.4 2.3s1.4 4 1.4 7.4c0 4-.5 6.8-1.4 8.6-.9 1.7-2.4 2.6-4.5 2.6-1.4 0-2.6-.4-3.4-1.3-.9-.9-1.3-2.1-1.3-3.5h2.3v.1c0 .9.2 1.5.7 2s1.1.7 1.9.7c1.2 0 2.1-.5 2.6-1.6.4-1.2.7-3.3.9-6.4m-.3-4c0-1.6-.3-2.9-.9-3.7-.6-.9-1.4-1.3-2.5-1.3-1 0-1.7.4-2.3 1.3-.5.9-.8 2.1-.8 3.7 0 1.5.3 2.7.8 3.4.6.8 1.4 1.2 2.4 1.2 1.1 0 1.9-.4 2.4-1.1.7-.8.9-1.9.9-3.5M295 200.1v-15h-4.3v-1.7h.3c1.4 0 2.5-.3 3.3-.9.7-.6 1.1-1.6 1.2-2.9h1.8v20.5H295zm-21.8-5.1h2.1c0 1.8-.4 3.2-1.2 4.1-.8 1-2 1.4-3.4 1.4-1.6 0-2.8-.6-3.6-1.9s-1.2-3.3-1.2-5.9c0-2.8.4-4.9 1.2-6.2s2-2 3.7-2c1.6 0 2.8.6 3.5 1.7.8 1.1 1.2 2.8 1.2 5.1v.8.5h-7.3v.7c0 1.9.2 3.3.7 4.2.4.9 1.1 1.3 2.1 1.3.7 0 1.3-.3 1.8-1a5.1 5.1 0 0 0 .7-2.7v-.1zm-5.2-4.1h5.2v-.4c0-1.4-.2-2.5-.6-3.2s-1-1.1-1.8-1.1c-.9 0-1.6.4-2 1.1-.6.8-.8 2-.8 3.6m-9.6 3.9h2.1c0 1.8-.4 3.3-1.3 4.3-.8 1-2 1.5-3.6 1.5-1.7 0-2.9-.7-3.8-2-.8-1.3-1.2-3.4-1.2-6.1 0-2.6.4-4.6 1.3-5.9.8-1.3 2.1-2 3.9-2 1.4 0 2.5.4 3.4 1.3.8.9 1.2 2 1.2 3.5v.3h-2.1c0-1.1-.3-1.9-.7-2.4-.4-.6-1-.8-1.8-.8-1 0-1.8.5-2.2 1.4s-.7 2.5-.7 4.7.2 3.8.7 4.8c.5.9 1.2 1.4 2.2 1.4.8 0 1.4-.3 1.8-1 .6-.8.8-1.8.8-3m-22.8 5.3v-15.2h2v1.9c.4-.7.9-1.3 1.5-1.7s1.4-.6 2.3-.6c1.3 0 2.3.3 2.9 1s.9 1.8.9 3.5v11H243v-11.2c0-.8-.2-1.4-.5-1.9-.4-.4-.9-.6-1.6-.6-1 0-1.7.3-2.3.9s-.8 1.4-.8 2.4v10.3h-2.2zm-8.1-15.2h2.2v15.2h-2.2v-15.2zm0-5.2h2.2v2.8h-2.2v-2.8zm-15.1 15.8h2.1v.1.4c0 .8.2 1.5.7 1.9s1.2.7 2.1.7c.8 0 1.5-.2 1.9-.7.5-.4.7-1 .7-1.8 0-1.2-.9-2.1-2.8-2.8h0c-1.9-.6-3.1-1.3-3.6-1.9s-.8-1.6-.8-2.8c0-1.3.4-2.4 1.2-3.1s1.9-1.1 3.3-1.1c1.5 0 2.6.4 3.4 1.1.7.7 1.1 1.8 1.1 3.2v.2h-2c0-.9-.3-1.6-.6-2-.4-.4-.9-.6-1.7-.6s-1.4.2-1.9.6c-.4.4-.6 1-.6 1.8 0 .3.1.6.2.9s.3.5.5.7c.4.3 1.2.7 2.3 1.1l1.4.5c1 .4 1.8.9 2.2 1.5s.7 1.4.7 2.5c0 1.5-.4 2.7-1.3 3.5s-2.1 1.2-3.7 1.2c-1.5 0-2.6-.4-3.4-1.2s-1.1-2-1.1-3.5v-.4zm-13.9 4.6c-.3 0-.5.1-.7.1h-.5c-.6 0-1.1-.2-1.4-.6s-.5-.9-.6-1.6c-.3.8-.8 1.4-1.4 1.8s-1.3.6-2.2.6c-1.1 0-2-.4-2.6-1.1s-.9-1.8-.9-3.1.3-2.3.9-3 1.8-1.4 3.7-2h0c1.6-.5 2.3-1.1 2.3-1.8V188c0-.6-.2-1.1-.5-1.4-.4-.3-.9-.4-1.7-.4s-1.3.2-1.7.6-.6 1-.6 1.8v.3h-2c0-1.6.4-2.7 1.1-3.4s1.8-1.1 3.4-1.1c1.4 0 2.5.3 3.2 1s1 1.7 1 3.1v8.9c0 .4.1.7.2.9s.4.3.7.3h.3.1v1.5zm-3.4-8.2c-.3.4-1.1.8-2.2 1.2-.1 0-.2.1-.2.1-1 .3-1.6.7-1.9 1.2-.3.4-.5 1.1-.5 1.9s.2 1.3.5 1.8c.3.4.8.6 1.4.6.9 0 1.6-.3 2.1-1s.8-1.6.8-2.7v-3.1zm-14.6-7h2.2v15.2h-2.2v-15.2zm0-5.2h2.2v2.8h-2.2v-2.8zm-10.6 20.4v-15.2h2v2.5c.3-.9.8-1.6 1.4-2.1s1.3-.8 2.1-.8h.5.4v2.3c-.1-.1-.2-.1-.4-.1h-.5c-1.1 0-1.9.4-2.6 1.1-.6.7-.9 1.7-.9 3v9.3h-2zm-7.7-5.1h2.1c0 1.8-.4 3.2-1.2 4.1-.8 1-2 1.4-3.4 1.4-1.6 0-2.8-.6-3.6-1.9s-1.2-3.3-1.2-5.9c0-2.8.4-4.9 1.2-6.2s2-2 3.7-2c1.6 0 2.8.6 3.5 1.7.8 1.1 1.2 2.8 1.2 5.1v.8.5h-7.3v.7c0 1.9.2 3.3.7 4.2.4.9 1.1 1.3 2.1 1.3.7 0 1.3-.3 1.8-1a5.1 5.1 0 0 0 .7-2.7v-.1zm-5.2-4.1h5.2v-.4c0-1.4-.2-2.5-.6-3.2s-1-1.1-1.8-1.1c-.9 0-1.6.4-2 1.1-.5.8-.8 2-.8 3.6m-17.2 10.6h2.1a1.75 1.75 0 0 0 .7 1.4c.4.3 1 .5 1.8.5 1 0 1.8-.3 2.3-1s.7-1.8.7-3.3v-.3-.5c-.3.7-.7 1.2-1.3 1.6a4.65 4.65 0 0 1-2.1.5c-1.5 0-2.7-.7-3.5-2.1s-1.1-3.5-1.1-6.2c0-2.5.4-4.4 1.2-5.6.8-1.3 2-1.9 3.6-1.9.8 0 1.5.2 2 .6.6.4 1 .9 1.2 1.6V185h2.1v14.5c0 1.9-.5 3.3-1.4 4.3s-2.2 1.5-3.8 1.5c-1.3 0-2.4-.3-3.2-1-.9-.7-1.3-1.6-1.3-2.8h0zm1.8-9c0 2.1.2 3.6.7 4.6.4.9 1.2 1.4 2.2 1.4 1.1 0 1.8-.5 2.3-1.4.4-.9.7-2.5.7-4.8 0-2.1-.2-3.6-.7-4.6-.5-.9-1.2-1.4-2.3-1.4-1 0-1.7.5-2.1 1.4-.6 1.1-.8 2.6-.8 4.8m-10-7.6h2.2v15.2h-2.2v-15.2zm0-5.2h2.2v2.8h-2.2v-2.8zm-18.2 20.4v-20.4h3l7.1 17.5-.2-17.5h2.2v20.4h-2.9l-7.2-18 .2 18h-2.2zm-25.1 1.4h2.1a1.75 1.75 0 0 0 .7 1.4c.4.3 1 .5 1.8.5 1 0 1.8-.3 2.3-1s.7-1.8.7-3.3v-.3-.5c-.3.7-.7 1.2-1.3 1.6a4.65 4.65 0 0 1-2.1.5c-1.5 0-2.7-.7-3.5-2.1s-1.1-3.5-1.1-6.2c0-2.5.4-4.4 1.2-5.6.8-1.3 2-1.9 3.6-1.9.8 0 1.5.2 2.1.6s1 .9 1.2 1.6V185h2.1v14.5c0 1.9-.5 3.3-1.4 4.3s-2.2 1.5-3.8 1.5c-1.3 0-2.4-.3-3.2-1-1-.7-1.4-1.6-1.4-2.8h0zm1.7-9c0 2.1.2 3.6.7 4.6.4.9 1.2 1.4 2.2 1.4 1.1 0 1.8-.5 2.3-1.4.4-.9.7-2.5.7-4.8 0-2.1-.2-3.6-.7-4.6-.5-.9-1.2-1.4-2.3-1.4-1 0-1.7.5-2.1 1.4-.5 1.1-.8 2.6-.8 4.8m-17.2 7.6v-15.2h2v1.9c.4-.7.9-1.3 1.5-1.7s1.4-.6 2.3-.6c1.3 0 2.3.3 2.9 1s.9 1.8.9 3.5v11h-2.1v-11.2c0-.8-.2-1.4-.5-1.9-.4-.4-.9-.6-1.6-.6-1 0-1.7.3-2.3.9s-.8 1.4-.8 2.4v10.3h-2.3zm-8.2-15.2h2.2v15.2h-2.2v-15.2zm0-5.2h2.2v2.8h-2.2v-2.8zm-11.2 20.4l-4.1-15.2h2.3l3 11.9 3.1-11.9h2.2l-4.2 15.2h-2.3zm-14.5 0v-15.2h2v2.5c.3-.9.8-1.6 1.4-2.1s1.3-.8 2.1-.8h.5.4v2.3c-.1-.1-.2-.1-.4-.1h-.5c-1.1 0-1.9.4-2.6 1.1-.6.7-.9 1.7-.9 3v9.3h-2zm-7.7-5.1h2.1c0 1.8-.4 3.2-1.2 4.1-.8 1-2 1.4-3.4 1.4-1.6 0-2.8-.6-3.6-1.9s-1.2-3.3-1.2-5.9c0-2.8.4-4.9 1.2-6.2s2-2 3.7-2c1.6 0 2.8.6 3.5 1.7.8 1.1 1.2 2.8 1.2 5.1v.8.5h-7.3v.7c0 1.9.2 3.3.7 4.2.4.9 1.1 1.3 2.1 1.3.8 0 1.3-.3 1.8-1a5.1 5.1 0 0 0 .7-2.7v-.1zm-5.2-4.1h5.2v-.4c0-1.4-.2-2.5-.6-3.2s-1-1.1-1.8-1.1c-.9 0-1.6.4-2 1.1-.6.8-.8 2-.8 3.6m-19.2 2.7H9v.7c0 1.4.3 2.4 1 3.1.6.7 1.6 1.1 2.8 1.1 1.1 0 2-.3 2.7-1 .6-.7 1-1.6 1-2.8 0-1-.2-1.7-.6-2.2s-1.3-1-2.7-1.6l-1.4-.5c-1.7-.6-2.7-1.1-3-1.4-.6-.5-1-1.1-1.3-1.8s-.4-1.5-.4-2.4c0-1.8.5-3.2 1.5-4.2s2.3-1.5 4.1-1.5c1.7 0 3 .5 3.9 1.4s1.4 2.2 1.4 3.8v.3.3h-2.1v-.2c0-1.1-.3-2-.8-2.6-.6-.6-1.4-.9-2.4-.9-1.1 0-1.9.3-2.5.9s-.9 1.4-.9 2.4.2 1.7.6 2.2 1.3 1 2.7 1.6c.2.1.4.2.7.3 2.1.8 3.4 1.4 3.8 1.8.5.5.9 1 1.1 1.7s.4 1.5.4 2.4c0 1.9-.5 3.4-1.6 4.5s-2.6 1.6-4.5 1.6-3.3-.5-4.3-1.6-1.5-2.6-1.5-4.7v-.3c.1-.2.1-.3.1-.4"/><path d="M7.1 169.8h340.5v1.4H7.1v-1.4z" fill-rule="evenodd"/></g></svg>