<svg width="100" height="58" viewBox="0 0 100 58" fill="none" xmlns="http://www.w3.org/2000/svg">
<path d="M64.5147 14.4277C63.3399 16.0998 60.606 20.2305 60.606 22.4847C60.606 25.4019 63.0238 27.776 65.9948 27.776C68.9659 27.776 71.3837 25.4019 71.3837 22.4847C71.3837 20.2305 68.6498 16.0998 67.475 14.4277C66.7996 13.4753 65.1865 13.4753 64.5147 14.4277ZM65.9948 24.252C65.0033 24.252 64.1985 23.4618 64.1985 22.4882C64.2129 21.9485 64.9602 20.414 65.9948 18.6996C67.0295 20.4105 67.7768 21.9449 67.7911 22.4847C67.7911 23.4583 66.9828 24.252 65.9948 24.252Z" fill="#F8F8F8"/>
<path d="M97.2037 33.0709H90.3993C94.1069 30.1606 96.5283 25.7371 96.5283 20.7244C96.5283 12.1983 89.6305 5.2737 81.0334 4.91742V1.76378C81.0334 0.790173 80.2287 0 79.2371 0H72.052C71.0604 0 70.2557 0.790173 70.2557 1.76378V4.85039H51.6173C42.7041 4.85039 35.4506 11.9725 35.4506 20.7244C35.4506 25.7371 37.8756 30.1606 41.5796 33.0709H34.3333V10.1417C34.3333 9.16813 33.5286 8.37795 32.537 8.37795H14.5741C13.9418 8.37795 13.3598 8.70249 13.0329 9.23515L2.25507 26.8729C2.23711 26.9012 2.2443 26.9364 2.22993 26.9647C2.097 27.2081 2 27.4762 2 27.7795V45.4173C2 46.3909 2.80474 47.1811 3.7963 47.1811H7.38889C7.38889 52.0421 11.4198 56 16.3704 56C21.321 56 25.3519 52.0421 25.3519 47.1811H32.537H59.4815C59.4815 52.0421 63.5124 56 68.463 56C73.4136 56 77.4444 52.0421 77.4444 47.1811C77.4444 52.0421 81.4753 56 86.4259 56C91.3765 56 95.4074 52.0421 95.4074 47.1811H97.2037C98.1953 47.1811 99 46.3909 99 45.4173V34.8346C99 33.8575 98.1953 33.0709 97.2037 33.0709ZM73.8519 3.52756H77.4444V4.85039H73.8519V3.52756ZM39.0504 20.7244C39.0504 13.9162 44.6908 8.37795 51.6245 8.37795H72.0555H79.2407H80.3652C87.2989 8.37795 92.9393 13.9162 92.9393 20.7244C92.9393 27.5326 87.2989 33.0709 80.3652 33.0709H51.6245C44.6908 33.0709 39.0504 27.5291 39.0504 20.7244ZM15.5908 11.9055H23.1604L20.2863 26.0157H6.96855L15.5908 11.9055ZM16.3704 52.4724C13.3993 52.4724 10.9815 50.0984 10.9815 47.1811C10.9815 46.7155 11.039 46.2992 11.1755 45.8547C11.7862 43.5195 13.9202 41.8898 16.3704 41.8898C18.8205 41.8898 20.9545 43.5195 21.5904 45.9394C21.7018 46.2957 21.7593 46.7119 21.7593 47.1811C21.7593 50.0984 19.3414 52.4724 16.3704 52.4724ZM24.583 43.6535C24.5794 43.6465 24.5723 43.6394 24.5687 43.6288C24.2489 42.9128 23.8178 42.2672 23.3328 41.6675C23.2574 41.5758 23.1927 41.4806 23.1137 41.3924C22.6251 40.8386 22.0646 40.3588 21.4539 39.9426C21.3425 39.8649 21.2276 39.7944 21.1126 39.7238C20.4803 39.3323 19.8049 39.0113 19.0864 38.7855C18.9822 38.7538 18.8744 38.7361 18.7702 38.7044C18.0014 38.4927 17.2003 38.3552 16.3704 38.3552C15.5369 38.3552 14.7357 38.4927 13.9633 38.7044C13.8627 38.7326 13.7621 38.7502 13.6616 38.782C12.9251 39.0113 12.2389 39.3393 11.5958 39.7379C11.5024 39.7979 11.409 39.8544 11.3156 39.9143C10.6725 40.3447 10.0905 40.8491 9.58396 41.4277C9.54085 41.477 9.50133 41.53 9.46181 41.5793C8.94089 42.2002 8.49182 42.8845 8.16489 43.6359L8.1613 43.643H5.59259V29.5327H21.7593C22.6143 29.5327 23.3508 28.9401 23.5196 28.1147L26.8248 11.8949H30.7407V34.8241V43.643H24.583V43.6535ZM68.463 52.4724C65.4919 52.4724 63.0741 50.0984 63.0741 47.1811C63.0741 46.7155 63.1316 46.2992 63.2681 45.8547C63.8752 43.5195 66.0128 41.8898 68.463 41.8898C70.9131 41.8898 73.0471 43.5195 73.683 45.9394C73.7944 46.2957 73.8519 46.7119 73.8519 47.1811C73.8519 50.0984 71.434 52.4724 68.463 52.4724ZM86.4259 52.4724C83.4548 52.4724 81.037 50.0984 81.037 47.1811C81.037 46.7155 81.0945 46.2992 81.231 45.8547C81.8382 43.5195 83.9758 41.8898 86.4259 41.8898C88.8761 41.8898 91.0101 43.5195 91.646 45.9394C91.7573 46.2957 91.8148 46.7119 91.8148 47.1811C91.8148 50.0984 89.397 52.4724 86.4259 52.4724ZM95.4074 43.6535H94.6386C94.635 43.6465 94.6278 43.6394 94.6242 43.6288C94.3045 42.9128 93.8734 42.2672 93.3884 41.6675C93.3129 41.5758 93.2483 41.4806 93.1692 41.3924C92.6806 40.8386 92.1202 40.3588 91.5094 39.9426C91.3981 39.8649 91.2831 39.7944 91.1681 39.7238C90.5359 39.3323 89.8604 39.0113 89.1419 38.7855C89.0377 38.7538 88.93 38.7361 88.8258 38.7044C88.057 38.4927 87.2558 38.3552 86.4259 38.3552C85.5924 38.3552 84.7913 38.4927 84.0189 38.7044C83.9183 38.7326 83.8177 38.7502 83.7171 38.782C82.9806 39.0113 82.2944 39.3393 81.6514 39.7379C81.558 39.7979 81.4646 39.8544 81.3711 39.9143C80.7281 40.3447 80.1461 40.8491 79.6395 41.4277C79.5964 41.477 79.5569 41.53 79.5174 41.5793C78.9964 42.2002 78.5474 42.8845 78.2204 43.6359L78.2169 43.643H76.6756C76.672 43.6359 76.6648 43.6288 76.6613 43.6183C76.3415 42.9022 75.9104 42.2566 75.4254 41.6569C75.35 41.5652 75.2853 41.47 75.2063 41.3818C74.7177 40.828 74.1572 40.3482 73.5465 39.932C73.4351 39.8544 73.3201 39.7838 73.2052 39.7133C72.5729 39.3217 71.8975 39.0007 71.179 38.7749C71.0748 38.7432 70.967 38.7255 70.8628 38.6938C70.094 38.4821 69.2928 38.3446 68.463 38.3446C67.6295 38.3446 66.8283 38.4821 66.0559 38.6938C65.9553 38.722 65.8547 38.7397 65.7541 38.7714C65.0177 39.0007 64.3315 39.3288 63.6884 39.7274C63.595 39.7873 63.5016 39.8438 63.4082 39.9037C62.7651 40.3341 62.1831 40.8386 61.6766 41.4171C61.6334 41.4665 61.5939 41.5194 61.5544 41.5688C61.0335 42.1896 60.5844 42.874 60.2575 43.6253L60.2539 43.6324H34.3333V36.5773H51.6245H80.3652H95.4074V43.6535Z" fill="#F8F8F8"/>
<line y1="57" x2="100" y2="57" stroke="#F8F8F8" stroke-width="2"/>
</svg>
